<svg width="503" height="154" viewBox="0 0 503 154" fill="none" xmlns="http://www.w3.org/2000/svg">
<path d="M311.49 31.57H336.828C342.429 31.57 347.465 32.4959 351.937 34.3477C356.453 36.1544 360.044 38.9999 362.709 42.8843C365.374 46.7686 366.706 51.8272 366.706 58.0602C366.706 64.2481 365.374 69.3745 362.709 73.4395C360.044 77.5045 356.453 80.5532 351.937 82.5857C347.465 84.5731 342.429 85.5667 336.828 85.5667H323.075V121H311.49V31.57ZM323.075 75.8785H333.644C337.483 75.8785 340.961 75.3139 344.078 74.1847C347.239 73.0556 349.746 71.2037 351.598 68.6292C353.495 66.0547 354.443 62.5995 354.443 58.2635C354.443 53.8823 353.495 50.4722 351.598 48.0332C349.746 45.5491 347.239 43.8102 344.078 42.8165C340.961 41.7777 337.483 41.2582 333.644 41.2582H323.075V75.8785ZM382.093 31.57H393.746V121H382.093V31.57ZM451.523 72.4232H496.644V77.3012C496.644 83.5342 495.56 89.4059 493.392 94.9162C491.224 100.381 488.153 105.192 484.178 109.347C480.249 113.502 475.619 116.754 470.29 119.103C464.96 121.452 459.111 122.626 452.742 122.626C446.238 122.626 440.276 121.429 434.856 119.035C429.436 116.596 424.739 113.254 420.764 109.008C416.79 104.717 413.718 99.7717 411.55 94.171C409.382 88.5703 408.298 82.5857 408.298 76.2172C408.298 69.8939 409.382 63.9319 411.55 58.3312C413.718 52.7306 416.79 47.8074 420.764 43.5617C424.739 39.3161 429.436 35.9963 434.856 33.6025C440.276 31.1635 446.238 29.944 452.742 29.944C457.169 29.944 461.211 30.4408 464.87 31.4345C468.573 32.383 471.893 33.738 474.829 35.4995C477.81 37.2158 480.452 39.1806 482.756 41.3937C485.059 43.5617 487.046 45.8652 488.718 48.3042L478.216 53.9275C475.506 50.1787 472.028 47.0847 467.783 44.6457C463.537 42.2067 458.524 40.9872 452.742 40.9872C448.045 40.9872 443.709 41.9132 439.734 43.765C435.76 45.6168 432.304 48.1687 429.369 51.4207C426.478 54.6727 424.242 58.4216 422.661 62.6672C421.08 66.9129 420.29 71.4296 420.29 76.2172C420.29 81.0049 421.08 85.5442 422.661 89.835C424.242 94.0807 426.478 97.8521 429.369 101.149C432.304 104.401 435.76 106.953 439.734 108.805C443.709 110.657 448.045 111.583 452.742 111.583C457.214 111.583 461.301 110.815 465.005 109.279C468.709 107.744 471.938 105.621 474.693 102.911C477.448 100.201 479.616 97.0391 481.197 93.4257C482.778 89.8124 483.659 85.9281 483.84 81.7727H451.523V72.4232Z" fill="url(#paint0_linear_140_38)"/>
<path d="M53.12 121V107.56L28.672 93.224L12.288 121H0L52.736 31.4H63.744V121H53.12ZM33.92 84.136L53.12 95.272V51.496L33.92 84.136ZM80.46 121V31.4H113.868C127.692 31.4 138.956 42.664 138.956 56.488C138.956 70.312 127.82 81.448 113.868 81.448H98.508L136.14 114.472L129.228 122.408L90.956 88.744V121H80.46ZM91.468 70.952H113.484C121.42 70.952 128.076 64.424 128.076 56.488C128.076 48.424 121.42 41.896 113.484 41.896H91.468V70.952ZM142.137 121L171.193 31.4H181.689L210.745 121H198.969L192.953 102.568H159.801L153.785 121H142.137ZM163.129 91.944H189.625L176.313 51.112L163.129 91.944ZM214.962 121L232.114 31.4H243.25L257.586 97.96L271.922 31.4H283.058L300.21 121H288.69L277.042 58.408L263.346 121H251.826L238.13 58.408L226.482 121H214.962Z" fill="url(#paint1_linear_140_38)"/>
<defs>
<linearGradient id="paint0_linear_140_38" x1="475.093" y1="42.3043" x2="267.508" y2="247.845" gradientUnits="userSpaceOnUse">
<stop stop-color="#189FC5"/>
<stop offset="1" stop-color="#0A436A"/>
</linearGradient>
<linearGradient id="paint1_linear_140_38" x1="180.5" y1="36.5" x2="171.5" y2="143.5" gradientUnits="userSpaceOnUse">
<stop stop-color="#CCBC8F"/>
<stop offset="1" stop-color="#6F572A"/>
</linearGradient>
</defs>
</svg>
