<svg width="304" height="229" viewBox="0 0 304 229" fill="none" xmlns="http://www.w3.org/2000/svg">
<path d="M53.12 121V107.56L28.672 93.224L12.288 121H0L52.736 31.4H63.744V121H53.12ZM33.92 84.136L53.12 95.272V51.496L33.92 84.136ZM80.46 121V31.4H113.868C127.692 31.4 138.956 42.664 138.956 56.488C138.956 70.312 127.82 81.448 113.868 81.448H98.508L136.14 114.472L129.228 122.408L90.956 88.744V121H80.46ZM91.468 70.952H113.484C121.42 70.952 128.076 64.424 128.076 56.488C128.076 48.424 121.42 41.896 113.484 41.896H91.468V70.952ZM142.137 121L171.193 31.4H181.689L210.745 121H198.969L192.953 102.568H159.801L153.785 121H142.137ZM163.129 91.944H189.625L176.313 51.112L163.129 91.944ZM214.962 121L232.114 31.4H243.25L257.586 97.96L271.922 31.4H283.058L300.21 121H288.69L277.042 58.408L263.346 121H251.826L238.13 58.408L226.482 121H214.962Z" fill="url(#paint0_linear_83_117)"/>
<path d="M8.055 140.52H31.991C37.2817 140.52 42.039 141.395 46.263 143.144C50.5297 144.851 53.9217 147.539 56.439 151.208C58.9563 154.877 60.215 159.656 60.215 165.544C60.215 171.389 58.9563 176.232 56.439 180.072C53.9217 183.912 50.5297 186.792 46.263 188.712C42.039 190.589 37.2817 191.528 31.991 191.528H18.999V225H8.055V140.52ZM18.999 182.376H28.983C32.6097 182.376 35.895 181.843 38.839 180.776C41.8257 179.709 44.1937 177.96 45.943 175.528C47.735 173.096 48.631 169.832 48.631 165.736C48.631 161.597 47.735 158.376 45.943 156.072C44.1937 153.725 41.8257 152.083 38.839 151.144C35.895 150.163 32.6097 149.672 28.983 149.672H18.999V182.376ZM74.75 140.52H85.758V225H74.75V140.52ZM140.337 179.112H182.961V183.72C182.961 189.608 181.937 195.155 179.889 200.36C177.841 205.523 174.94 210.067 171.185 213.992C167.473 217.917 163.1 220.989 158.065 223.208C153.03 225.427 147.505 226.536 141.489 226.536C135.345 226.536 129.713 225.405 124.593 223.144C119.473 220.84 115.036 217.683 111.281 213.672C107.526 209.619 104.625 204.947 102.577 199.656C100.529 194.365 99.505 188.712 99.505 182.696C99.505 176.723 100.529 171.091 102.577 165.8C104.625 160.509 107.526 155.859 111.281 151.848C115.036 147.837 119.473 144.701 124.593 142.44C129.713 140.136 135.345 138.984 141.489 138.984C145.67 138.984 149.489 139.453 152.945 140.392C156.444 141.288 159.58 142.568 162.353 144.232C165.169 145.853 167.665 147.709 169.841 149.8C172.017 151.848 173.894 154.024 175.473 156.328L165.553 161.64C162.993 158.099 159.708 155.176 155.697 152.872C151.686 150.568 146.95 149.416 141.489 149.416C137.052 149.416 132.956 150.291 129.201 152.04C125.446 153.789 122.182 156.2 119.409 159.272C116.678 162.344 114.566 165.885 113.073 169.896C111.58 173.907 110.833 178.173 110.833 182.696C110.833 187.219 111.58 191.507 113.073 195.56C114.566 199.571 116.678 203.133 119.409 206.248C122.182 209.32 125.446 211.731 129.201 213.48C132.956 215.229 137.052 216.104 141.489 216.104C145.713 216.104 149.574 215.379 153.073 213.928C156.572 212.477 159.622 210.472 162.225 207.912C164.828 205.352 166.876 202.365 168.369 198.952C169.862 195.539 170.694 191.869 170.865 187.944H140.337V179.112Z" fill="url(#paint1_linear_83_117)"/>
<path d="M220.125 143.624C225.683 152.158 225.297 162.133 219.261 165.907C213.224 169.678 203.824 165.817 198.266 157.283C192.708 148.749 199.131 135 199.131 135C199.131 135 214.568 135.09 220.125 143.624Z" fill="url(#paint2_linear_83_117)"/>
<path d="M216.389 146.555C219.88 151.912 219.636 158.179 215.847 160.547C212.057 162.915 206.156 160.491 202.664 155.13C199.173 149.773 203.207 141.138 203.207 141.138C203.207 141.138 212.898 141.194 216.389 146.555Z" fill="black"/>
<path d="M279.876 143.624C274.318 152.158 274.705 162.133 280.741 165.907C286.778 169.678 296.178 165.817 301.736 157.283C307.294 148.749 300.871 135 300.871 135C300.871 135 285.434 135.09 279.876 143.624Z" fill="url(#paint3_linear_83_117)"/>
<path d="M283.612 146.555C280.121 151.912 280.365 158.179 284.154 160.547C287.944 162.915 293.845 160.491 297.337 155.13C300.828 149.773 296.794 141.138 296.794 141.138C296.794 141.138 287.103 141.194 283.612 146.555Z" fill="black"/>
<g filter="url(#filter0_d_83_117)">
<path d="M202.367 163.984C202.367 153.537 211.579 145.065 222.939 145.065H277.246C288.61 145.065 297.819 153.537 297.819 163.984V206.081C297.819 216.528 288.606 225 277.246 225H222.939C211.579 225 202.367 216.532 202.367 206.081V163.984Z" fill="url(#paint4_linear_83_117)"/>
<mask id="mask0_83_117" style="mask-type:luminance" maskUnits="userSpaceOnUse" x="202" y="145" width="96" height="80">
<path d="M202.367 163.984C202.367 153.537 211.579 145.065 222.939 145.065H277.246C288.61 145.065 297.819 153.537 297.819 163.984V206.081C297.819 216.528 288.606 225 277.246 225H222.939C211.579 225 202.367 216.532 202.367 206.081V163.984Z" fill="white"/>
</mask>
<g mask="url(#mask0_83_117)">
<path d="M267.814 128.391L190.837 211.691L211.367 229.892L288.343 146.593L267.814 128.391Z" fill="url(#paint5_linear_83_117)"/>
<path d="M267.864 129.372L287.342 146.641L211.317 228.909L191.84 211.64L267.864 129.372ZM267.815 128.389L190.84 211.692L211.371 229.892L288.341 146.589L267.811 128.389H267.815Z" fill="url(#paint6_linear_83_117)"/>
<path d="M229.593 202.953L206.074 230.128L203.806 228.076L229.593 202.953Z" fill="url(#paint7_linear_83_117)"/>
<path d="M239.181 187.94L226.165 202.019L231.461 196.936L247.748 179.715L252.519 174.157L239.181 187.94Z" fill="url(#paint8_linear_83_117)"/>
<path d="M213.426 209.192L201.803 223.129L200.169 221.65L213.426 209.192Z" fill="url(#paint9_linear_83_117)"/>
<path d="M231.943 184.625L276.576 137.437L278.005 138.77L231.943 184.625Z" fill="url(#paint10_linear_83_117)"/>
</g>
</g>
<g filter="url(#filter1_d_83_117)">
<path d="M260.718 187.985H239.652C235.737 187.985 232.563 191.094 232.563 194.929V203.887C232.563 207.722 235.737 210.831 239.652 210.831H260.718C264.633 210.831 267.807 207.722 267.807 203.887V194.929C267.807 191.094 264.633 187.985 260.718 187.985Z" fill="url(#paint11_linear_83_117)"/>
</g>
<path d="M246.607 201.186C244.629 203.616 241.503 204.398 239.62 202.932C237.738 201.464 237.816 198.304 239.791 195.874C241.768 193.443 244.895 192.662 246.777 194.127C248.659 195.596 248.581 198.756 246.607 201.186Z" fill="black"/>
<path d="M260.58 195.874C258.602 193.443 255.476 192.662 253.593 194.127C251.711 195.596 251.789 198.756 253.763 201.186C255.741 203.616 258.868 204.398 260.75 202.932C262.632 201.464 262.554 198.304 260.58 195.874Z" fill="black"/>
<path d="M232.113 183.555C232.113 185.711 230.33 187.458 228.129 187.458C225.928 187.458 224.145 185.711 224.145 183.555C224.145 181.399 225.928 179.653 228.129 179.653C230.33 179.653 232.113 181.399 232.113 183.555Z" fill="black"/>
<path d="M276.041 183.555C276.041 185.711 274.258 187.458 272.057 187.458C269.856 187.458 268.073 185.711 268.073 183.555C268.073 181.399 269.856 179.653 272.057 179.653C274.258 179.653 276.041 181.399 276.041 183.555Z" fill="black"/>
<path d="M254.937 214.893H245.249C244.271 214.893 243.477 215.67 243.477 216.629C243.477 217.588 244.271 218.365 245.249 218.365H254.937C255.916 218.365 256.709 217.588 256.709 216.629C256.709 215.67 255.916 214.893 254.937 214.893Z" fill="black"/>
<defs>
<filter id="filter0_d_83_117" x="196.367" y="137.065" width="107.452" height="91.9348" filterUnits="userSpaceOnUse" color-interpolation-filters="sRGB">
<feFlood flood-opacity="0" result="BackgroundImageFix"/>
<feColorMatrix in="SourceAlpha" type="matrix" values="0 0 0 0 0 0 0 0 0 0 0 0 0 0 0 0 0 0 127 0" result="hardAlpha"/>
<feOffset dy="-2"/>
<feGaussianBlur stdDeviation="3"/>
<feColorMatrix type="matrix" values="0 0 0 0 0 0 0 0 0 0 0 0 0 0 0 0 0 0 0.75 0"/>
<feBlend mode="normal" in2="BackgroundImageFix" result="effect1_dropShadow_83_117"/>
<feBlend mode="normal" in="SourceGraphic" in2="effect1_dropShadow_83_117" result="shape"/>
</filter>
<filter id="filter1_d_83_117" x="226.563" y="185.985" width="47.2439" height="34.8455" filterUnits="userSpaceOnUse" color-interpolation-filters="sRGB">
<feFlood flood-opacity="0" result="BackgroundImageFix"/>
<feColorMatrix in="SourceAlpha" type="matrix" values="0 0 0 0 0 0 0 0 0 0 0 0 0 0 0 0 0 0 127 0" result="hardAlpha"/>
<feOffset dy="4"/>
<feGaussianBlur stdDeviation="3"/>
<feColorMatrix type="matrix" values="0 0 0 0 0 0 0 0 0 0 0 0 0 0 0 0 0 0 0.75 0"/>
<feBlend mode="normal" in2="BackgroundImageFix" result="effect1_dropShadow_83_117"/>
<feBlend mode="normal" in="SourceGraphic" in2="effect1_dropShadow_83_117" result="shape"/>
</filter>
<linearGradient id="paint0_linear_83_117" x1="180.5" y1="36.5" x2="171.5" y2="143.5" gradientUnits="userSpaceOnUse">
<stop stop-color="#CCBC8F"/>
<stop offset="1" stop-color="#6F572A"/>
</linearGradient>
<linearGradient id="paint1_linear_83_117" x1="162.628" y1="150.391" x2="-33.3343" y2="344.629" gradientUnits="userSpaceOnUse">
<stop stop-color="#189FC5"/>
<stop offset="1" stop-color="#0A436A"/>
</linearGradient>
<linearGradient id="paint2_linear_83_117" x1="210.027" y1="135" x2="210.027" y2="167.352" gradientUnits="userSpaceOnUse">
<stop stop-color="#DAC898"/>
<stop offset="1" stop-color="#785E2C"/>
</linearGradient>
<linearGradient id="paint3_linear_83_117" x1="289.975" y1="135" x2="289.975" y2="167.352" gradientUnits="userSpaceOnUse">
<stop stop-color="#DAC898"/>
<stop offset="1" stop-color="#785E2C"/>
</linearGradient>
<linearGradient id="paint4_linear_83_117" x1="220.047" y1="215.64" x2="284.556" y2="147.147" gradientUnits="userSpaceOnUse">
<stop stop-color="#AC9969"/>
<stop offset="1" stop-color="#CABA8D"/>
</linearGradient>
<linearGradient id="paint5_linear_83_117" x1="254.97" y1="205.232" x2="225.156" y2="152.51" gradientUnits="userSpaceOnUse">
<stop stop-color="#0B6A96"/>
<stop offset="0.91" stop-color="#0A3D64"/>
</linearGradient>
<linearGradient id="paint6_linear_83_117" x1="239.593" y1="229.892" x2="239.593" y2="128.389" gradientUnits="userSpaceOnUse">
<stop stop-color="#26D0E8"/>
<stop offset="1" stop-color="#085480" stop-opacity="0.5"/>
</linearGradient>
<linearGradient id="paint7_linear_83_117" x1="203.806" y1="216.539" x2="227.639" y2="216.539" gradientUnits="userSpaceOnUse">
<stop stop-color="#26D0E8"/>
<stop offset="1" stop-color="#004F8B"/>
</linearGradient>
<linearGradient id="paint8_linear_83_117" x1="226.165" y1="188.086" x2="252.519" y2="188.086" gradientUnits="userSpaceOnUse">
<stop stop-color="#26D0E8"/>
<stop offset="1" stop-color="#004F8B"/>
</linearGradient>
<linearGradient id="paint9_linear_83_117" x1="200.169" y1="216.16" x2="213.426" y2="216.16" gradientUnits="userSpaceOnUse">
<stop stop-color="#26D0E8"/>
<stop offset="1" stop-color="#004F8B"/>
</linearGradient>
<linearGradient id="paint10_linear_83_117" x1="231.943" y1="161.029" x2="278.005" y2="161.029" gradientUnits="userSpaceOnUse">
<stop stop-color="#26D0E8"/>
<stop offset="0.86" stop-color="#004F8B"/>
</linearGradient>
<linearGradient id="paint11_linear_83_117" x1="262.752" y1="187.097" x2="238.142" y2="212.222" gradientUnits="userSpaceOnUse">
<stop stop-color="#DAC898"/>
<stop offset="1" stop-color="#785E2C"/>
</linearGradient>
</defs>
</svg>
